
Release info:

General
Format                                   : Matroska
Format version                           : Version 2
File size                                : 894 MiB
Duration                                 : 1h 41mn
Overall bit rate                         : 1 236 Kbps

Video
ID                                       : 1
Format                                   : MPEG-4 Visual
Format profile                           : Simple@L3
Format settings, BVOP                    : Yes
Format settings, QPel                    : No
Format settings, GMC                     : No warppoints
Format settings, Matrix                  : Default (H.263)
Codec ID                                 : V_MS/VFW/FOURCC / XVID
Codec ID/Hint                            : XviD
Duration                                 : 1h 41mn
Bit rate                                 : 763 Kbps
Width                                    : 720 pixels
Height                                   : 304 pixels
Display aspect ratio                     : 2.35:1
Frame rate mode                          : Constant
Frame rate                               : 23.976 fps
Color space                              : YUV
Chroma subsampling                       : 4:2:0
Bit depth                                : 8 bits
Scan type                                : Progressive
Compression mode                         : Lossy
Bits/(Pixel*Frame)                       : 0.145
Stream size                              : 552 MiB (62%)
Language                                 : English
Default                                  : Yes
Forced                                   : No

Audio
ID                                       : 2
Format                                   : AC-3
Format/Info                              : Audio Coding 3
Mode extension                           : CM (complete main)
Format settings, Endianness              : Big
Muxing mode                              : Header stripping
Codec ID                                 : A_AC3
Duration                                 : 1h 41mn
Bit rate mode                            : Constant
Bit rate                                 : 448 Kbps
Channel(s)                               : 6 channels
Channel positions                        : Front: L C R, Side: L R, LFE
Sampling rate                            : 48.0 KHz
Bit depth                                : 16 bits
Compression mode                         : Lossy
Stream size                              : 324 MiB (36%)
Language                                 : English
Default                                  : Yes
Forced                                   : No

Source:
credit to original movie ripper  (Thanks)

IMDB Info:

The year is 1945, the closing stages of WW2, and a German scientist by the name of Klausener is working on a frightening new technology that has the power to create an immortal Nazi army... 
Director: Steve Barker
Writers: Steve Barker, Rae Brunton
Stars: Richard Coyle, Clive Russell and Catherine Steadman 

Genres: Action | Horror
 
http://www.imdb.com/title/tt1418712/

Screen Shot:
 
http://www.shotpix.com/images/84999801495734891308.png 
http://www.shotpix.com/images/02304978344657935051.png 
http://www.shotpix.com/images/66133925050124892949.png 
http://www.shotpix.com/images/05427961581107341944.png 
http://www.shotpix.com/images/36782116867773093457.png 
http://www.shotpix.com/images/60640388997057347181.png